<svg enable-background="new 0 0 24 24" viewBox="0 0 24 24" xmlns="http://www.w3.org/2000/svg"><g clip-rule="evenodd" fill-rule="evenodd"><path d="m14 10.1c0 1.2 0 2.3-.6 3.4-.5.9-1.3 1.4-2.2 1.4-1.2 0-1.9-.9-1.9-2.3 0-2.7 2.4-3.2 4.7-3.2zm3.1 7.7c-.2.2-.5.2-.7.1-1.1-.9-1.2-1.3-1.8-2.1-1.7 1.8-3 2.3-5.2 2.3-2.7 0-4.7-1.6-4.7-4.9 0-2.6 1.4-4.4 3.3-5.2 1.7-.8 4.1-.9 5.9-1.1v-.4c0-.8.1-1.6-.4-2.3-.4-.6-1.1-.8-1.8-.8-1.2 0-2.3.6-2.5 1.9 0 .2-.2.5-.5.5l-3-.2c-.2-.1-.5-.3-.4-.7.7-3.7 4-4.8 6.9-4.8 1.5 0 3.5.4 4.8 1.6 1.4 1.4 1.3 3.3 1.3 5.3v4.9c0 1.5.6 2.1 1.2 2.9.2.3.2.6 0 .8-.7.6-1.7 1.6-2.4 2.2z"/><path d="m20.6 19.7c-2.7 1.5-5.7 2.2-8.3 2.2-4 0-7.8-1.4-11-3.7-.3-.2-.5.2-.3.4 2.9 3.3 6.7 5.3 11 5.3 3.1 0 6.5-1.2 9-3.5.4-.4 0-.9-.4-.7zm.7 2.2c-.1.2.1.3.3.1 1.3-1.1 1.7-3.5 1.4-3.8s-2.6-.6-4 .4c-.2.2-.2.4.1.3.8-.1 2.6-.3 2.9.1.2.5-.4 2.1-.7 2.9z" fill="#ee9400"/></g></svg>