<svg enable-background="new 0 0 24 24" viewBox="0 0 24 24" xmlns="http://www.w3.org/2000/svg"><path d="m21 5.6c-2.9-2.2-5.8-2.1-5.8-2.1l-.2.3c3.5 1 5.1 2.6 5.1 2.6-5-2.8-11.4-2.7-16.6 0 0 0 1.7-1.6 5.4-2.7l-.2-.3s-2.8-.1-5.8 2.1c0 0-3 5.3-3 11.9 0 0 1.7 3 6.3 3.1 0 0 .8-.9 1.4-1.7-2.6-.8-3.6-2.4-3.6-2.4 1.6 1 3.3 1.7 5.4 2.1 3.4.7 7.5 0 10.7-2.1 0 0-1 1.7-3.7 2.4.6.8 1.4 1.6 1.4 1.6 4.5-.1 6.3-3.1 6.3-3.1-.1-6.4-3.1-11.7-3.1-11.7zm-12.8 9.9c-1.2 0-2.1-1-2.1-2.3.1-3 4.1-3 4.2 0 0 1.3-1 2.3-2.1 2.3zm7.5 0c-1.2 0-2.1-1-2.1-2.3.1-3 4.1-3 4.2 0 0 1.3-1 2.3-2.1 2.3z" fill="#6665d2"/></svg>