<svg enable-background="new 0 0 24 24" viewBox="0 0 24 24" xmlns="http://www.w3.org/2000/svg"><path d="m12 0c-6.6 0-12 5.4-12 12 0 5.2 3.3 9.7 8.2 11.4.6.1.8-.3.8-.6s0-1.2 0-2.2c-3 .6-3.8-.7-4-1.4-.3-.7-.7-1.2-1.2-1.7-.4-.2-1-.8 0-.8.8.1 1.5.5 1.8 1.2.7 1.2 2.3 1.7 3.5 1 .1-.6.3-1.2.8-1.6-2.7-.3-5.5-1.3-5.5-5.9 0-1.2.4-2.3 1.2-3.2-.4-1.1-.3-2.2.1-3.2 0 0 1-.3 3.3 1.2 2-.5 4-.5 6 0 2.3-1.6 3.3-1.2 3.3-1.2.4 1 .5 2.1.1 3.2.8.9 1.2 2 1.2 3.2 0 4.6-2.8 5.6-5.5 5.9.6.6.9 1.4.8 2.2v3.3c0 .3.2.7.8.6 6.3-2.1 9.7-8.9 7.5-15.2-1.5-4.9-6.1-8.2-11.2-8.2z" fill="#fff"/></svg>