<svg enable-background="new 0 0 24 24" viewBox="0 0 24 24" xmlns="http://www.w3.org/2000/svg"><path d="m23.8 12.3c0-1-.1-1.7-.3-2.5h-11.3v4.5h6.6c-.1 1.1-.9 2.8-2.5 3.9v.1l3.6 2.8h.2c2.4-2.1 3.7-5.2 3.7-8.8" fill="#4285f4"/><path d="m12.2 24c3.2 0 6-1.1 7.9-2.9l-3.8-2.9c-1 .7-2.4 1.2-4.2 1.2-3.2 0-5.9-2.1-6.8-5h-.1l-3.7 2.9v.1c2 3.9 6 6.6 10.7 6.6" fill="#34a853"/><path d="m5.4 14.4c-.2-.8-.4-1.6-.4-2.4s.1-1.6.4-2.4v-.2l-3.8-2.8h-.1c-.8 1.6-1.3 3.5-1.3 5.4s.5 3.8 1.3 5.4z" fill="#fbbc05"/><path d="m12.2 4.6c2.3 0 3.8 1 4.6 1.8l3.4-3.3c-2.1-1.9-4.8-3.1-8-3.1-4.7 0-8.7 2.7-10.7 6.6l3.9 3c1-2.9 3.7-5 6.8-5" fill="#eb4335"/></svg>