<svg enable-background="new 0 0 24 24" viewBox="0 0 24 24" xmlns="http://www.w3.org/2000/svg" xmlns:xlink="http://www.w3.org/1999/xlink"><linearGradient id="a" gradientUnits="userSpaceOnUse" x1="287.9984" x2="309.6831" y1="7302.3906" y2="7271.4214"><stop offset="0" stop-color="#f28e29"/><stop offset=".6521" stop-color="#7d4393"/></linearGradient><path clip-rule="evenodd" d="m291 7279.1c-2 .1-3.6.6-5 1.9-1.4 1.4-1.8 3.1-1.9 5-.1 1.2-.4 10.3.6 12.7.6 1.6 1.9 2.9 3.5 3.5.8.3 1.6.5 2.9.6 10.6.5 14.6.2 16.2-4 .3-.8.5-1.6.6-2.9.5-10.7-.1-13-1.9-14.8-1.6-1.5-3.3-2.5-15-2m.1 21.6c-1.2-.1-1.8-.2-2.2-.4-1.1-.4-1.9-1.2-2.3-2.3-.7-1.8-.5-10.4-.4-11.8s.3-2.6 1.3-3.6c1.2-1.2 2.7-1.8 13.2-1.3 1.4.1 2.6.3 3.6 1.3 1.2 1.2 1.8 2.7 1.3 13.2-.1 1.2-.2 1.8-.4 2.2-1 2.8-3.5 3.2-14.1 2.7m9.8-16.1c0 .8.6 1.4 1.4 1.4s1.4-.6 1.4-1.4-.6-1.4-1.4-1.4-1.4.6-1.4 1.4m-11.1 6.4c0 3.4 2.7 6.1 6.1 6.1s6.1-2.7 6.1-6.1-2.7-6.1-6.1-6.1-6.1 2.7-6.1 6.1m2.2 0c0-2.2 1.8-4 4-4s4 1.8 4 4-1.8 4-4 4-4-1.8-4-4" fill="url(#a)" fill-rule="evenodd" transform="translate(-284 -7279)"/></svg>