<svg enable-background="new 0 0 24 24" viewBox="0 0 24 24" xmlns="http://www.w3.org/2000/svg"><path d="m24 20.7c0 1.8-1.5 3.3-3.3 3.3h-17.4c-1.8 0-3.3-1.5-3.3-3.3v-17.4c0-1.8 1.5-3.3 3.3-3.3h17.3c1.9 0 3.4 1.5 3.4 3.3z" fill="#0078d4"/><path d="m4 7.7h3.3v11.3h-3.3zm1.7-1.4c-1.1 0-1.7-.7-1.7-1.6 0-1 .7-1.7 1.7-1.7s1.6.7 1.7 1.7c-.1.9-.7 1.6-1.7 1.6zm14.3 12.7h-3.3v-6.1c0-1.5-.8-2.5-2.1-2.5-1 0-1.5.7-1.8 1.3-.1.2-.1.9-.1 1.2v6h-3.4v-11.2h3.3v1.7c.5-.7 1.2-1.7 3.2-1.7 2.4 0 4.2 1.5 4.2 4.8z" fill="#fff"/></svg>