<svg enable-background="new 0 0 24 24" viewBox="0 0 24 24" xmlns="http://www.w3.org/2000/svg" xmlns:xlink="http://www.w3.org/1999/xlink"><linearGradient id="a" gradientUnits="userSpaceOnUse" x1="0" x2="24" y1="12" y2="12"><stop offset="0" stop-color="#3b76bb"/><stop offset="1" stop-color="#2f62ac"/></linearGradient><path d="m2.6 14.5c0-3.9 2-8 4.3-8 1.3 0 2.3.8 3.9 3.1-1.5 2.4-2.5 3.8-2.5 3.8-2 3.2-2.7 3.9-3.8 3.9-1.2.1-1.9-.9-1.9-2.8m13.4-1.4-1.5-2.4c-.3-.6-.8-1.2-1.1-1.7 1.3-2 2.3-3 3.6-3 2.6 0 4.6 3.8 4.6 8.6 0 1.8-.6 2.8-1.8 2.8s-1.6-.7-3.8-4.3m-3.7-5.8c-1.9-2.5-3.5-3.4-5.4-3.4-3.9-.1-6.9 5.2-6.9 10.6 0 3.4 1.6 5.6 4.4 5.6 2 0 3.3-.9 5.9-5.4 0 0 1-1.9 1.8-3.2.3.4.5.9.8 1.4l1.2 2c2.3 3.9 3.6 5.2 5.9 5.2 2.6 0 4.1-2.2 4.1-5.7-.1-5.8-3.2-10.6-6.8-10.6-2.1-0-3.6 1.6-5 3.5" fill="url(#a)"/></svg>