<svg enable-background="new 0 0 24 24" shape-rendering="geometricPrecision" viewBox="0 0 24 24" xmlns="http://www.w3.org/2000/svg"><g transform="translate(0 -.148)"><path d="m8.8.1c-1.3 0-2.4 1.1-2.4 2.4s1.1 2.4 2.4 2.4h2.4v-2.4c0-1.3-1.1-2.4-2.4-2.4m0 6.4h-6.4c-1.3 0-2.4 1.1-2.4 2.4s1.1 2.4 2.4 2.4h6.4c1.3 0 2.4-1.1 2.4-2.4s-1.1-2.4-2.4-2.4" fill="#36c5f0"/><path d="m24 8.9c0-1.3-1.1-2.4-2.4-2.4s-2.4 1.1-2.4 2.4v2.4h2.4c1.3 0 2.4-1 2.4-2.4m-6.4 0v-6.4c0-1.3-1.1-2.4-2.4-2.4s-2.4 1.1-2.4 2.4v6.4c0 1.3 1.1 2.4 2.4 2.4s2.4-1 2.4-2.4" fill="#2eb67d"/><path d="m15.2 24.1c1.3 0 2.4-1.1 2.4-2.4s-1.1-2.4-2.4-2.4h-2.4v2.4c0 1.4 1.1 2.4 2.4 2.4m0-6.4h6.4c1.3 0 2.4-1.1 2.4-2.4s-1.1-2.4-2.4-2.4h-6.4c-1.3 0-2.4 1.1-2.4 2.4 0 1.4 1.1 2.4 2.4 2.4z" fill="#ecb22e"/><path d="m0 15.3c0 1.3 1.1 2.4 2.4 2.4s2.4-1.1 2.4-2.4v-2.4h-2.4c-1.3 0-2.4 1.1-2.4 2.4m6.4 0v6.4c0 1.3 1.1 2.4 2.4 2.4s2.4-1.1 2.4-2.4v-6.4c0-1.3-1.1-2.4-2.4-2.4s-2.4 1.1-2.4 2.4" fill="#e01e5a"/></g></svg>