<svg enable-background="new 0 0 24 24" viewBox="0 0 24 24" xmlns="http://www.w3.org/2000/svg"><path d="m24 4.6c-.9.4-1.9.7-2.8.8 1-.6 1.8-1.6 2.2-2.7-1 .6-2 1-3.1 1.2-1.9-2-5-2.1-7-.2-1 .9-1.6 2.2-1.6 3.6 0 .4 0 .8.1 1.1-4-.2-7.6-2.1-10.1-5.1-1.3 2.1-.7 5 1.5 6.4-.8 0-1.6-.2-2.2-.6v.1c0 2.3 1.6 4.4 3.9 4.8-.4.1-.9.2-1.3.2-.3 0-.6 0-.9-.1.7 2 2.5 3.4 4.6 3.4-1.7 1.4-3.9 2.1-6.1 2.1-.4 0-.8 0-1.2-.1 2.2 1.4 4.9 2.2 7.5 2.2 9.1 0 14-7.5 14-14 0-.2 0-.4 0-.6 1-.7 1.8-1.5 2.5-2.5z" fill="#03a9f4"/></svg>