<svg enable-background="new 0 0 24 24" viewBox="0 0 24 24" xmlns="http://www.w3.org/2000/svg"><path clip-rule="evenodd" d="m21.5 20c1.5-1.1 2.5-2.7 2.5-4.6 0-3.3-3.2-6-7.2-6s-7.2 2.7-7.2 6 3.2 6 7.2 6c.8 0 1.6-.1 2.4-.3h.2c.1 0 .3 0 .4.1l1.6.9h.1c.1 0 .2-.1.2-.2v-.2l-.3-1.2v-.1c-.1-.1 0-.3.1-.4zm-12.8-17.2c-4.8 0-8.7 3.2-8.7 7.2 0 2.2 1.2 4.1 3 5.5.2.1.2.3.2.5v.2l-.4 1.5v.2c0 .2.1.3.3.3h.2l1.9-1.1c.1-.1.3-.1.5-.1h.3c.9.2 1.8.4 2.8.4h.5c-.2-.6-.3-1.2-.3-1.8 0-3.6 3.5-6.6 7.9-6.6h.5c-.8-3.6-4.4-6.2-8.7-6.2zm5.7 11.7c-.5 0-1-.4-1-1s.4-1 1-1 1 .4 1 1-.5 1-1 1zm4.8 0c-.5 0-1-.4-1-1s.4-1 1-1 1 .4 1 1-.5 1-1 1zm-13.4-5.6c-.6 0-1.2-.5-1.2-1.2s.5-1.2 1.2-1.2 1.2.5 1.2 1.2-.6 1.2-1.2 1.2zm5.8 0c-.6 0-1.2-.5-1.2-1.2s.5-1.2 1.2-1.2 1.2.5 1.2 1.2-.6 1.2-1.2 1.2z" fill="#2cbc00" fill-rule="evenodd"/></svg>